<svg version="1.1" id="Logo" xmlns="http://www.w3.org/2000/svg" xmlns:xlink="http://www.w3.org/1999/xlink" x="0px" y="0px" viewBox="0 0 5800 1400" xml:space="preserve">
<style type="text/css">
	.st0{clip-path:url(#SVGID_00000127764260374010202630000007109613761546299533_);}
	.st1{fill-rule:evenodd;clip-rule:evenodd;}
</style>
<g>
	<g>
		<g>
			<defs>
				<path id="SVGID_1_" d="M681,56.8L681,56.8c355.2,0,643.2,288,643.2,643.2l0,0c0,355.2-288,643.2-643.2,643.2l0,0
					c-355.2,0-643.2-288-643.2-643.2l0,0C37.8,344.8,325.8,56.8,681,56.8z"/>
			</defs>
			<clipPath id="SVGID_00000031900620465247452470000001066280192059997861_">
				<use xlink:href="#SVGID_1_" style="overflow:visible;"/>
			</clipPath>
			<g style="clip-path:url(#SVGID_00000031900620465247452470000001066280192059997861_);">
				<path d="M1321.6,699.9c0,261.3-156.3,486-380.4,585.8l-212.8-214.4c-8.9-9-13.9-21.1-13.9-33.7V946c0-13.2,10.7-23.9,23.9-23.9
					h205.5l56.2,24.5c10.2,4.4,22,0.4,27.4-9.4l122-222.2c3.9-7,5.9-15,5.9-23v-52.3c0-6-2.4-11.7-6.8-15.8L902.1,378.1
					c-2-2-4.6-3.4-7.4-4.1l-239.9-57c-7.5-1.8-14.5-5.4-20.3-10.4l-15.2-13.2l-77-66.7c-2.7-2.3-6.8-2.2-9.4,0.2
					c-29.7,26.9-45.8,49.1-53.6,78.4c-13,45.9-1.9,86.6,16.4,111.2c1.1,1.6,2.3,3,3.5,4.4l91.8,91.9c4.5,4.4,6.9,10.5,6.9,16.8
					l0.1,106c0,6.9-8.3,10.3-13.2,5.5L435.3,491.7c-4-4-10.6-4-14.6,0L359.1,553c-4.1,4-4.1,10.6,0,14.7l212.6,212.6
					c24.5,24.5,38.2,57.7,38.2,92.3v211.2c0,14.2,5.6,27.7,15.6,37.7l202.3,202.4c-38.2,9-77.8,14.5-118.4,16.3l-159.7-159.7
					c-22.3-22.3-34.8-52.5-34.8-83.9V878c0-12.6-5-24.7-13.9-33.6L291.7,635c-4-4-10.6-4-14.6,0l-62,61.9c-4.1,4-4.1,10.6,0,14.6
					l180.3,180.3c4.4,4.5,6.9,10.5,6.9,16.8v105.7c0,6.9-8.3,10.3-13.2,5.5L150.6,781.4c-3.7-3.7-10.1-1.1-10.1,4.2l-0.3,126.6
					c0,7.9,3.1,15.6,8.7,21.2l391.8,391.9C246.8,1259.6,29.1,991.8,41,675.2C53.2,351,311.9,83,635.6,60.7
					C1009.9,34.8,1321.6,330.9,1321.6,699.9"/>
			</g>
		</g>
		<path class="st1" d="M2311.7,489.9c13.3,12.7,29.3,19.1,48,19.1c18.7,0,34.4-6.4,47.2-19.1c12.8-13.3,19.2-29.4,19.2-48.5
			c0-19.1-6.4-34-19.2-46.2c-12.8-12.7-28.5-19.1-47.2-19.1c-18.7,0-34.6,6.4-48,19.1c-12.8,12.2-19.2,27.6-19.2,46.2
			C2292.5,459.9,2298.9,476.7,2311.7,489.9z"/>
		<path d="M2415.4,562.2h-112.2v446.5h112.2V562.2z"/>
		<path class="st1" d="M1932.8,1008.7h115.8V495h179.8V392.1H1753V495h179.8V1008.7z"/>
		<path class="st1" d="M2506.2,1008.7V565.8h92.4l8.4,59.3c13.4-21.7,33-39.3,58.8-52.7c25.8-13.9,54.9-20.9,87.4-20.9
			c32.5,0,58.5,7,81.5,20.9c23,13.9,40.6,33.7,52.9,59.3c12.9-23.4,32.5-42.6,58.8-57.7c26.9-15,57.4-22.6,91.6-22.6
			c45.9,0,82.6,15,110,45.1c28,29.5,42,69.1,42,118.7v293.3h-114.2V720.4c0-21.7-6.4-39-19.3-51.8c-12.3-13.4-29.1-20.1-50.4-20.1
			c-29.7,0-54,8.6-73.1,25.9c-18.5,17.3-27.7,39.3-27.7,66v268.3H2791V720.4c0-21.7-6.4-39-19.3-51.8
			c-12.3-13.4-29.1-20.1-50.4-20.1c-29.7,0-53.8,8.6-72.2,25.9c-18.5,17.3-27.7,39.3-27.7,66v268.3L2506.2,1008.7L2506.2,1008.7z"
			/>
		<path class="st1" d="M3692.2,784.2c-0.6-47.1-10.1-88.1-28.6-123c-18.5-35.4-44-62.6-76.6-81.4c-32.5-18.8-70.1-28.2-112.7-28.2
			c-42.6,0-81.9,10-116.1,29.9c-34.2,19.4-61.1,47.1-80.8,83.1c-19.1,35.4-28.6,76.4-28.6,123c0,46.5,9.8,85,29.4,120.5
			c19.6,34.9,47.1,62.3,82.4,82.3c35.9,19.4,76.6,29.1,122,29.1c53.3,0,98.2-13.3,134.6-39.9c26-19.4,45.9-44.3,59.6-74.6
			L3574,877.6c-7.3,13.7-17.6,24.6-30.8,32.9c-16.3,10-36.2,14.9-59.7,14.9c-33.1,0-60.6-10.5-82.4-31.6
			c-21.9-21-35.1-48.7-39.6-83.1h330.7V784.2L3692.2,784.2z M3366.6,735.2c7.3-27.7,20.5-49.3,39.5-64.8
			c19.1-16.1,41.8-24.1,68.1-24.1c26.4,0,47.4,7.8,64.8,23.3c17.4,15.5,29.2,37.4,35.3,65.6H3366.6L3366.6,735.2z"/>
		<path class="st1" d="M3934.1,1019.3c-64.7,0-114.5-13.3-149.4-39.9c-24.2-18.4-40.7-42.5-49.5-72.1l105.2-27.7
			c3.8,13.9,11.4,25.1,22.8,33.4c15.8,10.5,36.6,15.8,62.5,15.8c21.9,0,38.8-3.9,50.6-11.6c11.8-8.3,17.7-19.7,17.7-34.1
			c0-9.4-2.5-16.6-7.6-21.6c-4.5-5.5-9.8-9.4-16-11.6c-6.2-2.8-18.6-7.2-37.1-13.3l-56.5-18.3c-30.4-9.4-55.7-19.1-76-29.1
			c-19.7-10.5-35.7-24.1-48.1-40.7c-11.8-17.2-17.7-38.5-17.7-64c0-40.4,15.2-72.6,45.6-96.4c30.4-24.4,73.2-36.6,128.3-36.6
			c55.2,0,97.6,13.6,130.8,40.7c25.6,20.2,43.1,47.1,52.6,80.6l-100.9,26.6c-3.3-17.9-11.4-31.5-24.3-40.8
			c-14.6-11.1-34-16.6-58.3-16.6c-19.1,0-34,3.6-44.7,10.8c-10.7,7.2-16,17.2-16,29.9c0,8.9,2.8,16.3,8.4,22.4
			c6.2,5.5,12.7,9.7,19.4,12.5c6.8,2.8,18.6,6.9,35.5,12.5l51.5,17.5c34.9,11.1,62.5,22.2,82.7,33.2c20.3,10.5,35.7,24.1,46.4,40.7
			c11.3,16.1,16.9,37.1,16.9,63.1c0,42.1-15.5,75.1-46.4,98.9C4031.5,1007.4,3988.7,1019.3,3934.1,1019.3"/>
		<path class="st1" d="M4249.9,989.4c35.2,19.9,76.6,29.9,124.1,29.9c59.8,0,109-16.9,147.6-50.7c24-21,41.6-46.6,52.9-76.6
			l-106.9-28.4c-6,14.1-14.6,26.1-25.6,36c-17.9,16.1-40.5,24.1-67.9,24.1c-35.2,0-63.7-12.7-85.5-38.2
			c-21.8-25.5-32.7-59.8-32.7-103c0-43.2,10.6-74.5,31.9-98.9c21.2-24.9,49.2-37.4,83.9-37.4c27.9,0,51.4,8.3,70.4,24.9
			c13.4,11.3,23.1,25.4,29,42.3l108-28.7c-5-15.8-12.1-30.6-21.3-44.4c-18.4-28.2-43.6-50.1-75.5-65.6
			c-31.9-15.5-68.5-23.3-109.9-23.3c-44.7,0-84.7,9.4-119.9,28.2c-34.7,18.8-62.1,45.7-82.2,80.6c-19.6,34.9-29.4,75.6-29.4,122.1
			c0,46.5,9.2,86.1,27.7,122.1C4187.6,940.7,4214.7,968.9,4249.9,989.4"/>
		<path class="st1" d="M4972.5,565.7l-10.1,66.5c-12.9-24.9-33.1-44.6-60.6-59c-26.9-14.4-57.5-21.6-91.7-21.6
			c-39.3,0-74.6,10-106,29.9c-30.9,19.4-55,46.8-72.4,82.3c-17.4,34.9-26.1,74.8-26.1,119.6c0,44.9,9,87,26.9,123
			c17.9,35.5,42.6,63.1,74,83.1c32,19.9,67.9,29.9,107.7,29.9c30.3,0,57.2-5.8,80.8-17.5c23.6-11.6,42.1-27.7,55.5-48.2v52.3h114.4
			V565.7L4972.5,565.7L4972.5,565.7z M4918.7,886.4c-20.8,26.6-48.2,39.9-82.5,39.9c-34.2,0-61.1-13-82.5-39
			c-21.3-26.6-32-60.9-32-103c0-42.1,10.7-74.2,32-99.7c21.3-26,49.1-39.1,83.3-39.1s60.9,12.7,81.6,38.2
			c21.3,25.5,32,58.7,32,99.7C4950.7,824.3,4940,859.8,4918.7,886.4"/>
		<path d="M5257.4,392.1h-112.2v616.6h112.2V392.1z"/>
		<path class="st1" d="M5762.2,784.2c-0.6-47.1-10.1-88.1-28.6-123c-18.5-35.4-44-62.6-76.6-81.4c-32.5-18.8-70.1-28.2-112.7-28.2
			c-42.6,0-81.9,10-116.1,29.9c-34.2,19.4-61.1,47.1-80.8,83.1c-19.1,35.4-28.6,76.4-28.6,123c0,46.5,9.8,85,29.4,120.5
			c19.6,34.9,47.1,62.3,82.4,82.3c35.9,19.4,76.6,29.1,122,29.1c53.3,0,98.2-13.3,134.6-39.9c26-19.4,45.9-44.3,59.6-74.6
			L5644,877.6c-7.3,13.7-17.6,24.6-30.8,32.9c-16.3,10-36.2,14.9-59.7,14.9c-33.1,0-60.6-10.5-82.5-31.6
			c-21.9-21-35.1-48.7-39.5-83.1h330.7V784.2L5762.2,784.2z M5436.6,735.2c7.3-27.7,20.5-49.3,39.6-64.8
			c19.1-16.1,41.8-24.1,68.1-24.1c26.4,0,47.4,7.8,64.8,23.3c17.4,15.5,29.2,37.4,35.3,65.6H5436.6L5436.6,735.2z"/>
	</g>
</g>
</svg>
