<svg width="256" xmlns="http://www.w3.org/2000/svg" height="256" id="screenshot-3689be13-7916-8078-8008-0f41547981a3" viewBox="0 0 256 256" xmlns:xlink="http://www.w3.org/1999/xlink" fill="none" version="1.1"><g id="shape-3689be13-7916-8078-8008-0f41547981a3"><g class="frame-container-wrapper"><g class="frame-container-blur"><g class="frame-container-shadows"><g fill="none"><g class="fills" id="fills-3689be13-7916-8078-8008-0f41547981a3"><rect rx="0" ry="0" x="0" y="0" width="256" height="256" transform="matrix(1.000000, 0.000000, 0.000000, 1.000000, 0.000000, 0.000000)" class="frame-background"/></g><g class="frame-children"><g id="shape-3689be13-7916-8078-8008-0f4197340290"><g class="fills" id="fills-3689be13-7916-8078-8008-0f4197340290"><rect rx="0" ry="0" x="71" y="62" transform="matrix(1.000000, 0.000000, 0.000000, 1.000000, 0.000000, 0.000000)" width="114" height="134" style="fill: rgb(35, 40, 45); fill-opacity: 1;"/></g></g><g id="shape-3689be13-7916-8078-8008-0f41547981a5" width="256" height="256" rx="0" ry="0" style="fill: rgb(0, 0, 0);"><g id="shape-3689be13-7916-8078-8008-0f41547981a6" style="display: none;"><g class="fills" id="fills-3689be13-7916-8078-8008-0f41547981a6"><rect width="256" height="256" x="0" transform="matrix(1.000000, 0.000000, 0.000000, 1.000000, 0.000000, 0.000000)" style="fill: none;" ry="0" fill="none" rx="0" y="0"/></g></g><g id="shape-3689be13-7916-8078-8008-0f41547981a7"><g class="fills" id="fills-3689be13-7916-8078-8008-0f41547981a7"><path d="M128,32C74.980712890625,32,32,74.98095703125,32,128C32,181.01904296875,74.980712890625,224,128,224C181.01904296875,224,224,181.01904296875,224,128C224,74.98095703125,181.01904296875,32,128,32ZM102.7740478515625,169.697998046875L82.7235107421875,193.3570556640625L82.7235107421875,85.686767578125C82.7275390625,79.032958984375,88.123046875,73.640869140625,94.7767333984375,73.640380859375L145.5450439453125,73.630859375C143.135986328125,76.696044921875,140.696044921875,79.745849609375,138.31494140625,82.721923828125C135.425048828125,86.334228515625,132.4439697265625,90.0601806640625,129.5379638671875,93.787841796875L102.7740478515625,93.787841796875L102.7740478515625,169.697998046875ZM159.52197265625,175.945068359375C156.343994140625,172.280029296875,152.68798828125,168.1090087890625,148.98095703125,163.8790283203125C141.7490234375,155.625,134.26904296875,147.091064453125,129.85400390625,141.77001953125L128.260009765625,139.8499755859375L126.64501953125,141.751953125C121.677978515625,147.60498046875,116.6300048828125,153.47705078125,111.7769775390625,159.10205078125L111.7769775390625,129.85693359375C123.949951171875,114.824951171875,142.7239990234375,91.4534912109375,156.947021484375,73.625732421875L184.22705078125,73.625732421875C170.0880126953125,89.8582763671875,155.56201171875,106.60693359375,141.47705078125,123.9119873046875L140.373046875,125.26708984375L141.510986328125,126.595947265625C143.18505859375,128.552001953125,174.3389892578125,164.4990234375,184.259033203125,175.945068359375L159.52197265625,175.945068359375Z" style="fill: rgb(248, 245, 239);"/></g></g></g></g></g></g></g></g></g></svg>