<svg width="340" xmlns="http://www.w3.org/2000/svg" height="340" id="screenshot-8dc88776-4778-802f-8007-2df5f8db9eab" viewBox="125 38 340 340" xmlns:xlink="http://www.w3.org/1999/xlink" fill="none" version="1.1"><g id="shape-8dc88776-4778-802f-8007-2df5f8db9eab" rx="0" ry="0" style="fill: rgb(0, 0, 0);"><g id="shape-8dc88776-4778-802f-8007-2df5f8dc9677"><defs style="fill: rgb(0, 0, 0);"><g id="shape-8dc88776-4778-802f-8007-2df5f8dc9678"><style>#shape-8dc88776-4778-802f-8007-2df5f8db9eab{ .cls-1{fill:#ef7b1a;}.cls-2{fill:#fff;}.cls-3{fill:#fcc009;}.cls-4{fill:#be1d43;}.cls-5{fill:#131226;}.cls-6{fill:#40b9bc;} }</style></g></defs></g><g id="shape-8dc88776-4778-802f-8007-2df5f8dc967a" rx="0" ry="0" style="fill: rgb(0, 0, 0);"><g id="shape-8dc88776-4778-802f-8007-2df5f8dcf4fd"><g class="fills" id="fills-8dc88776-4778-802f-8007-2df5f8dcf4fd"><ellipse cx="295.00000000000045" cy="207.96547621956395" rx="164.31838226030004" ry="164.45109361454226" transform="matrix(1.000000, 0.000000, 0.000000, 1.000000, 0.000000, 0.000000)" class="cls-2"/></g></g></g><g id="shape-8dc88776-4778-802f-8007-2df5f8de567f"><g class="fills" id="fills-8dc88776-4778-802f-8007-2df5f8de567f"><ellipse cx="294.99994240151204" cy="207.96642125548155" rx="146.9951425306424" ry="146.99514253064245" transform="matrix(0.706821, -0.707392, 0.706821, 0.707392, -60.507393, 269.533251)" class="cls-5"/></g></g><g id="shape-8dc88776-4778-802f-8007-2df5f8de5680" rx="0" ry="0" style="fill: rgb(0, 0, 0);"><g id="shape-8dc88776-4778-802f-8007-2df5f8de5681"><g class="fills" id="fills-8dc88776-4778-802f-8007-2df5f8de5681"><path d="M156.7314453125,180.27993774414062C154.9521484375,189.23272705078125,154.010986328125,198.4889373779297,154.010986328125,207.9654541015625C154.010986328125,210.4651336669922,154.077880859375,212.94845581054688,154.2060546875,215.41543579101562C162.870361328125,215.56573486328125,170.338134765625,213.8084716796875,175.526611328125,209.2822723388672C201.270263671875,186.8252410888672,249.99267578125,193.1935272216797,249.99267578125,193.1935272216797C249.99267578125,193.1935272216797,235.030517578125,167.3441162109375,156.7314453125,180.27993774414062Z" class="cls-6"/></g></g><g id="shape-8dc88776-4778-802f-8007-2df5f8de5682"><g class="fills" id="fills-8dc88776-4778-802f-8007-2df5f8de5682"><path d="M170.514892578125,141.68069458007812C243.442626953125,119.23255920410156,262.109619140625,156.76800537109375,266.01220703125,168.88259887695312C266.01220703125,168.88259887695312,270.4765625,100.36143493652344,214.307373046875,92.25531005859375C196.09375,105.0007095336914,181.030517578125,121.9420166015625,170.514892578125,141.68212890625Z" class="cls-4"/></g></g><g id="shape-8dc88776-4778-802f-8007-2df5f8de5683"><g class="fills" id="fills-8dc88776-4778-802f-8007-2df5f8de5683"><path d="M294.42919921875,149.29278564453125C294.42919921875,149.29278564453125,302.06005859375,101.25714111328125,315.58349609375,68.36540985107422C308.863525390625,67.3819351196289,301.991943359375,66.86415100097656,295,66.86415100097656C287.634765625,66.86415100097656,280.400390625,67.43101501464844,273.340087890625,68.52165985107422C286.8232421875,101.41039276123047,294.42919921875,149.29421997070312,294.42919921875,149.29421997070312Z" class="cls-1"/></g></g><g id="shape-8dc88776-4778-802f-8007-2df5f8de9e10"><g class="fills" id="fills-8dc88776-4778-802f-8007-2df5f8de9e10"><path d="M375.509765625,92.12731170654297C318.3369140625,99.59214782714844,322.847412109375,168.88259887695312,322.847412109375,168.88259887695312C326.773681640625,156.69363403320312,345.647705078125,118.76387023925781,419.708251953125,142.10470581054688C409.1480712890625,122.11910247802734,393.935791015625,104.97986602783203,375.509765625,92.12731170654297Z" class="cls-4"/></g></g><g id="shape-8dc88776-4778-802f-8007-2df5f8de9e11"><g class="fills" id="fills-8dc88776-4778-802f-8007-2df5f8de9e11"><path d="M433.305419921875,180.473388671875C353.969970703125,167.0777587890625,338.866943359375,193.19497680664062,338.866943359375,193.19497680664062C338.866943359375,193.19497680664062,387.58935546875,186.8267822265625,413.3331298828125,209.28372192382812C418.747802734375,214.00636291503906,426.646728515625,215.7100372314453,435.7955322265625,215.38119506835938C435.922119140625,212.92611694335938,435.989013671875,210.45477294921875,435.989013671875,207.9669952392578C435.989013671875,198.55894470214844,435.059814453125,189.36813354492188,433.305419921875,180.473388671875Z" class="cls-6"/></g></g><g id="shape-8dc88776-4778-802f-8007-2df5f8de9e12"><g class="fills" id="fills-8dc88776-4778-802f-8007-2df5f8de9e12"><path d="M295,349.06829833984375C298.92041015625,349.06829833984375,302.802001953125,348.90020751953125,306.640869140625,348.5862731933594C297.338623046875,332.43194580078125,296.816650390625,307.8354187011719,296.816650390625,292.62005615234375C296.816650390625,292.62005615234375,306.139892578125,334.1297302246094,317.50732421875,347.2694396972656C355.477783203125,341.1719665527344,388.38134765625,319.90679931640625,409.8123779296875,289.87335205078125C405.8770751953125,286.1193542480469,397.25439453125,280.9890441894531,385.491455078125,291.66632080078125C385.491455078125,291.66632080078125,390.6680908203125,271.19268798828125,413.9097900390625,280.761474609375C409.6177978515625,269.3565673828125,398.2503662109375,261.42755126953125,385.1390380859375,262.4333190917969C371.210205078125,263.5032043457031,359.93212890625,274.970458984375,359.042724609375,288.922607421875C358.581787109375,296.16571044921875,360.86279296875,302.844970703125,364.907958984375,308.0927734375C357.597900390625,309.47808837890625,351.291259765625,313.6679992675781,347.122314453125,319.5035705566406C346.0283203125,312.7454833984375,340.186767578125,307.5794982910156,333.125,307.5794982910156C329.93017578125,307.5794982910156,326.9921875,308.64776611328125,324.621337890625,310.4302673339844C321.482666015625,307.8547668457031,318.060302734375,303.8358459472656,314.65869140625,298.72943115234375C305.689453125,285.26531982421875,301.8046875,264.76641845703125,300.322265625,253.02081298828125C299.9462890625,250.04800415039062,297.42333984375,247.82803344726562,294.42919921875,247.82803344726562C291.4345703125,247.82803344726562,288.912109375,250.04644775390625,288.5361328125,253.02081298828125C287.0537109375,264.76641845703125,282.141357421875,285.26531982421875,273.170654296875,298.72943115234375C261.728759765625,315.9058532714844,253.719970703125,317.62432861328125,248.952392578125,298.72943115234375L248.864501953125,298.750244140625C244.85498046875,284.5377197265625,231.831298828125,274.1104736328125,216.345703125,274.1104736328125C201.89794921875,274.1104736328125,189.6220703125,283.2001037597656,184.787353515625,295.96038818359375C189.70556640625,302.121826171875,195.12744140625,307.8622131347656,200.99365234375,313.11749267578125C218.60693359375,297.8857421875,233.50537109375,318.5766296386719,233.50537109375,318.5766296386719C220.837158203125,312.7589416503906,212.16650390625,314.3360290527344,206.468017578125,317.7760925292969C223.391357421875,331.4589538574219,243.53759765625,341.30291748046875,265.593017578125,345.98687744140625C274.797119140625,335.4004211425781,283.65771484375,315.71533203125,283.65771484375,315.71533203125C283.65771484375,322.38568115234375,279.822265625,337.88818359375,274.1416015625,347.5298156738281C280.94775390625,348.5401306152344,287.911376953125,349.06976318359375,294.998291015625,349.06976318359375Z" class="cls-3"/></g></g></g><g id="shape-8dc88776-4778-802f-8007-2df5f8def7f4"><g class="fills" id="fills-8dc88776-4778-802f-8007-2df5f8def7f4"><path d="M298.9501953125,165.17918395996094C297.739990234375,163.83712768554688,296.08544921875,163.16754150390625,294.4306640625,163.16754150390625C292.77587890625,163.16754150390625,291.12109375,163.83856201171875,289.910888671875,165.17918395996094C257.9736328125,200.57504272460938,250.14013671875,248.09738159179688,259.322021484375,254.41500854492188C268.924560546875,261.0213317871094,280.9267578125,232.19754028320312,293.829833984375,231.89849853515625L295.03125,231.89849853515625C307.932861328125,232.19900512695312,319.9365234375,261.02276611328125,329.5390625,254.41500854492188C338.72265625,248.09584045410156,330.88916015625,200.57350158691406,298.95166015625,165.17918395996094ZM294.4306640625,212.14947509765625C289.2001953125,212.14947509765625,284.9599609375,207.9059600830078,284.9599609375,202.67149353027344C284.9599609375,197.43702697753906,289.2001953125,193.1935272216797,294.4306640625,193.1935272216797C299.660888671875,193.1935272216797,303.901123046875,197.43702697753906,303.901123046875,202.67149353027344C303.901123046875,207.9059600830078,299.660888671875,212.14947509765625,294.4306640625,212.14947509765625Z" class="cls-2"/></g></g></g></svg>