<svg version="1.1" id="Layer_1" xmlns="http://www.w3.org/2000/svg" xmlns:xlink="http://www.w3.org/1999/xlink" x="0px" y="0px" viewBox="0 0 1080 1080" xml:space="preserve">
<style type="text/css">
	.st0{fill:#031730;}
	.st1{fill:#08B1D5;}
	.st2{fill:#1904DA;}
	.st3{fill:#FFC900;}
	.st4{fill:#FF0036;}
</style>
<g>
	<g>
		<g>
			<g>
				<g>
					<g>
						<path class="st0" d="M636.39,615.3h-31.11c-17.16,0-31.12-13.96-31.12-31.12c0-17.16,13.96-31.12,31.12-31.12
							c17.16,0,31.11,13.96,31.11,31.12V615.3z M605.27,565.71c-10.19,0-18.48,8.29-18.48,18.48c0,10.19,8.29,18.48,18.48,18.48
							h18.48v-18.48C623.75,574,615.46,565.71,605.27,565.71z"/>
					</g>
				</g>
				<g>
					<g>
						<path class="st0" d="M845.18,615.3h-31.11c-17.16,0-31.12-13.96-31.12-31.12c0-17.16,13.96-31.12,31.12-31.12
							c17.16,0,31.11,13.96,31.11,31.12V615.3z M814.07,565.71c-10.19,0-18.48,8.29-18.48,18.48c0,10.19,8.29,18.48,18.48,18.48
							h18.48v-18.48C832.55,574,824.26,565.71,814.07,565.71z"/>
					</g>
				</g>
				<g>
					<path class="st0" d="M744.46,615.31c-17.16,0-31.13-13.96-31.13-31.13v-29.2h12.64v29.2c0,10.19,8.3,18.49,18.49,18.49
						c10.19,0,18.49-8.29,18.49-18.49v-29.2h12.64v29.2C775.59,601.35,761.63,615.31,744.46,615.31z"/>
				</g>
				<g>
					<path class="st0" d="M674.86,553.07c-17.16,0-31.12,13.96-31.12,31.12c0,17.16,13.96,31.12,31.12,31.12l12.63-12.64h-12.63
						c-10.19,0-18.48-8.29-18.48-18.48c0-10.19,8.29-18.48,18.48-18.48s18.48,8.29,18.48,18.48V645h12.63v-60.81
						C705.98,567.03,692.02,553.07,674.86,553.07z"/>
				</g>
			</g>
		</g>
		<g>
			<g>
				<path class="st0" d="M319.01,818.35v30.66c-20.89,0-39.7-7.51-54.54-19.97c-18.64-15.65-30.5-39.14-30.5-65.39V610.09h30.5
					v69.69h54.54v30.87h-54.54v53.78C264.89,794.28,289.07,818.35,319.01,818.35z"/>
				<path class="st0" d="M427.69,679.78v30.46c-28.91,0.06-52.45,22.99-53.51,51.66v87.12h-30.55V679.78h30.55v19.31
					C388.71,687.05,407.36,679.81,427.69,679.78z"/>
				<path class="st0" d="M447.29,662.86v-26.69h30.5v26.69H447.29z M447.29,849.02V679.78h30.5v169.24H447.29z"/>
				<path class="st0" d="M664.8,679.78l-84.55,169.24l-84.66-169.24h34.66l50,99.95l49.89-99.95H664.8z"/>
				<path class="st0" d="M847.67,679.78c0,0,0,185.03,0,197.27c0,47.24-38.77,84.96-84.68,84.92c-21.51,0.02-41.44-8.14-56.55-21.7
					l21.92-21.92c9.36,7.93,21.44,12.73,34.63,12.72c29.72,0,53.77-24.3,53.77-54.02v-47.29c-14.75,12.2-33.57,19.27-53.77,19.25
					c-46.01,0.04-84.76-37.09-84.76-84.7c0-1,0-84.55,0-84.55h30.9c0,0,0.01,82.29,0.01,84.55c0,29.59,24.11,54.06,53.84,54.02
					c29.72,0,53.77-24.3,53.77-54.02v-84.54H847.67z"/>
			</g>
		</g>
		<g>
			<g>
				<g>
					<path class="st1" d="M431.28,292.69c0.03,0,0.05,0,0.08,0c4.34,0.01,7.94-3.33,7.94-7.67V141.05l-8.1-4.53l-8.07,4.51v143.99
						c0,4.34,3.59,7.69,7.94,7.67C431.14,292.69,431.21,292.69,431.28,292.69z"/>
					<path class="st2" d="M382.69,358.04l-133.57,89.64v10.21l7.61,4.17l134.95-90.57c3.47-2.33,4.33-6.97,2.08-10.49
						c-0.1-0.15-0.19-0.3-0.28-0.45C391.17,356.81,386.33,355.59,382.69,358.04z"/>
					<path class="st3" d="M470.85,371.55l134.84,90.49l7.59-4.16v-10.23l-133.42-89.55c-3.65-2.45-8.49-1.24-10.81,2.49
						c-0.09,0.14-0.18,0.28-0.27,0.43C466.51,364.56,467.37,369.22,470.85,371.55z"/>
					<path class="st0" d="M629.45,237.96v-9.25l-8.28-4.63l-0.61-0.32L439.09,122.42l-7.89-4.4l-7.86,4.4L241.84,223.76l-0.62,0.32
						l-8.28,4.63v9.25l-0.62,0.36l0.62,0.32v9.22v219.6l8.41,4.59l176.77,96.84l2.23,1.23l10.87,5.95l10.84-5.95l2.23-1.23
						l176.77-96.84l8.38-4.59v-219.6v-9.19l0.65-0.36L629.45,237.96z M439.5,553.12V389.73c0-4.45-3.64-8.09-8.1-8.08l-0.12,0
						l-0.08,0c-4.45,0-8.1,3.64-8.1,8.09v163.39l-166.37-91.07l-7.61-4.17v-10.21v-201.5l132.47,72.58
						c3.82,2.09,8.68,0.69,10.79-3.13l0.09-0.17c2.14-3.86,0.72-8.75-3.15-10.88l-130.76-71.64l164.56-91.92l8.07-4.51l8.1,4.53
						l164.53,91.9l-130.86,71.69c-3.85,2.11-5.06,6.93-2.92,10.76c0.04,0.06,0.07,0.13,0.11,0.19c2.1,3.8,6.77,5.31,10.57,3.22
						l132.54-72.64v201.48v10.23l-7.59,4.16L439.5,553.12z"/>
				</g>
				<circle class="st4" cx="431.28" cy="337.17" r="23.46"/>
			</g>
			<path class="st1" d="M556.56,225.18l-126.74-71.04c-3.9-2.18-5.28-7.11-3.1-11.01l0,0c2.18-3.9,7.11-5.28,11.01-3.1
				l126.74,71.04c3.9,2.18,5.28,7.11,3.1,11.01v0C565.38,225.97,560.45,227.36,556.56,225.18z"/>
			<path class="st1" d="M501.01,230.66l-71.2-39.91c-3.9-2.18-5.28-7.11-3.1-11.01l0,0c2.18-3.9,7.11-5.28,11.01-3.1l71.2,39.91
				c3.9,2.18,5.28,7.11,3.1,11.01v0C509.84,231.45,504.91,232.84,501.01,230.66z"/>
			<path class="st1" d="M524.34,243.73L524.34,243.73c-3.9-2.18-5.28-7.11-3.1-11.01v0c2.18-3.9,7.11-5.28,11.01-3.1v0
				c3.9,2.18,5.28,7.11,3.1,11.01v0C533.16,244.53,528.24,245.92,524.34,243.73z"/>
			<path class="st1" d="M453.64,241.96L430,228.71c-3.9-2.18-5.28-7.11-3.1-11.01v0c2.18-3.9,7.11-5.28,11.01-3.1l23.65,13.25
				c3.9,2.18,5.28,7.11,3.1,11.01l0,0C462.47,242.76,457.54,244.15,453.64,241.96z"/>
			<path class="st1" d="M489.32,263.74l-13.69-7.67c-3.9-2.18-5.28-7.11-3.1-11.01v0c2.18-3.9,7.11-5.28,11.01-3.1l13.69,7.67
				c3.9,2.18,5.28,7.11,3.1,11.01l0,0C498.15,264.54,493.22,265.93,489.32,263.74z"/>
		</g>
	</g>
</g>
</svg>
